<svg width="155" height="137" viewBox="0 0 155 137" fill="none" xmlns="http://www.w3.org/2000/svg">
<path d="M63.6309 66.9576C58.3082 64.2358 50.8684 61.3929 42.7029 61.3929C41.7956 61.3929 40.8278 61.4534 39.9205 61.5139C31.755 62.1793 24.3152 64.2962 19.053 66.1108C17.5408 66.6552 15.9077 67.26 14.2746 67.9254L0 117.584C10.8269 113.229 19.5974 111.475 26.9161 111.475C39.0132 111.475 47.4208 116.132 55.4049 121.455C58.3687 111.475 68.3488 77.3612 70.2238 70.8287C68.1068 69.498 65.9294 68.1673 63.6309 66.9576Z" fill="url(#paint0_linear_51_54)"/>
<path d="M78.8127 77.1192L64.5381 126.717C64.5381 126.717 81.2321 137 93.8131 137C101.737 137 111.233 135.064 123.149 130.165L136.939 82.0185C126.475 85.7687 117.463 87.1598 109.902 87.1598C93.2083 87.2203 83.1677 80.6274 78.8127 77.1192Z" fill="url(#paint1_linear_51_54)"/>
<path d="M45.4245 49.4168C57.0377 49.5378 65.2638 54.1951 72.9454 59.2759C75.8488 49.3563 84.5587 19.4764 87.5225 9.37528V9.31479C87.5225 9.31479 77.2399 3.14526 70.1026 1.33069C66.7154 0.544378 62.8443 0 58.5499 0C58.4894 0 58.4289 0 58.3684 0C51.1101 0.120971 42.4002 1.87505 31.6942 6.2905L17.6011 55.8887C28.6095 51.4128 37.5008 49.4168 45.0011 49.4168C45.122 49.4168 45.243 49.4168 45.4245 49.4168Z" fill="url(#paint2_linear_51_54)"/>
<path d="M127.141 26.0088C111.415 26.0088 101.072 19.3554 96.5352 15.7867L82.0791 65.8689C82.1396 65.9293 82.2001 65.9293 82.2001 65.9898C90.1842 71.3126 100.527 75.607 112.987 75.607C121.213 75.607 130.407 73.732 140.448 69.0141V68.9536C140.448 68.9536 140.508 68.9536 140.569 68.8931L154.843 19.7183C144.319 24.3152 135.065 26.0088 127.141 26.0088Z" fill="url(#paint3_linear_51_54)"/>
<defs>
<linearGradient id="paint0_linear_51_54" x1="19.5012" y1="87.04" x2="60.8212" y2="132.498" gradientUnits="userSpaceOnUse">
<stop stop-color="#E905D2"/>
<stop offset="1"/>
</linearGradient>
<linearGradient id="paint1_linear_51_54" x1="84.644" y1="102.689" x2="125.685" y2="149.38" gradientUnits="userSpaceOnUse">
<stop stop-color="#E905D2"/>
<stop offset="1"/>
</linearGradient>
<linearGradient id="paint2_linear_51_54" x1="37.0183" y1="25.3113" x2="77.7614" y2="70.5331" gradientUnits="userSpaceOnUse">
<stop stop-color="#E905D2"/>
<stop offset="1"/>
</linearGradient>
<linearGradient id="paint3_linear_51_54" x1="102.286" y1="41.3304" x2="143.253" y2="88.2192" gradientUnits="userSpaceOnUse">
<stop stop-color="#E905D2"/>
<stop offset="1"/>
</linearGradient>
</defs>
</svg>
